<svg xmlns="http://www.w3.org/2000/svg">
  <defs>

    <symbol id="C" viewBox="0 0 420 420">
      <title>C</title>
      <path style="fill: #a8b9cc" d="m 280,160 c 0,0 -5.446,-50.776 -55.826,-52.186 -50.38,-1.41 -76.254,38.082 -76.254,94.499 0,56.417 28.595,101.553 77.614,101.553 49.02,0 54.466,-56.417 54.466,-56.417 l 93.953,5.641 c 0,0 5.532,50.954 -33.784,89.829 -39.317,38.872 -87.575,45.223 -121.276,44.959 -33.701,-0.269 -80.427,0.528 -125.613,-45.752 -45.186,-46.28 -52.854,-91.239 -52.854,-135.403 0,-44.166 8.569,-102.673 62.296,-147.04 36.514,-30.148 73.529,-41.256 110.55,-41.256 154.551,0 164.931,142.544 164.931,142.544 l -98.203,-0.971 z" />
    </symbol>

    <symbol id="C++" viewBox="0 0 306 344.35">
      <title>C++</title>
      <path fill="#00599C" d="M302.107,258.262c2.401-4.159,3.893-8.845,3.893-13.053V99.14c0-4.208-1.49-8.893-3.892-13.052L153,172.175 L302.107,258.262z"/>
      <path fill="#004482" d="M166.25,341.193l126.5-73.034c3.644-2.104,6.956-5.737,9.357-9.897L153,172.175L3.893,258.263 c2.401,4.159,5.714,7.793,9.357,9.896l126.5,73.034C147.037,345.401,158.963,345.401,166.25,341.193z"/>
      <path fill="#659AD2" d="M302.108,86.087c-2.402-4.16-5.715-7.793-9.358-9.897L166.25,3.156c-7.287-4.208-19.213-4.208-26.5,0 L13.25,76.19C5.962,80.397,0,90.725,0,99.14v146.069c0,4.208,1.491,8.894,3.893,13.053L153,172.175L302.108,86.087z"/>
      <path fill="#FFFFFF" d="M153,274.175c-56.243,0-102-45.757-102-102s45.757-102,102-102c36.292,0,70.139,19.53,88.331,50.968 l-44.143,25.544c-9.105-15.736-26.038-25.512-44.188-25.512c-28.122,0-51,22.878-51,51c0,28.121,22.878,51,51,51 c18.152,0,35.085-9.776,44.191-25.515l44.143,25.543C223.142,254.644,189.294,274.175,153,274.175z"/>
      <polygon fill="#FFFFFF" points="255,166.508 243.666,166.508 243.666,155.175 232.334,155.175 232.334,166.508 221,166.508 221,177.841 232.334,177.841 232.334,189.175 243.666,189.175 243.666,177.841 255,177.841 	"/>
      <polygon fill="#FFFFFF" points="297.5,166.508 286.166,166.508 286.166,155.175 274.834,155.175 274.834,166.508 263.5,166.508 263.5,177.841 274.834,177.841 274.834,189.175 286.166,189.175 286.166,177.841 297.5,177.841 	"/>
    </symbol>

    <symbol id="CMake" viewBox="0 0 64 64">
      <title>CMake</title>
      <g transform="matrix(2.15, 0, 0, 2.15, -14.6, -34.6)">
        <polygon style="fill: #064f8c" transform="matrix(0.8, 0, 0, 0.8, 3.8, 12.6)" points="21.3,3.8   3.6,38.8   22.9,22.4" />
        <polygon style="fill: #249847" transform="matrix(0.8, 0, 0, 0.8, 3.8, 12.6)" points="38.6,39.9  14.8,30.3  3.5,39.9" />
        <polygon style="fill: #be2128" transform="matrix(0.8, 0, 0, 0.8, 3.8, 12.6)" points="39.8,39.6  22.1,4.4   24.7,33.5" />
        <polygon style="fill: #cdcdce" transform="matrix(0.8, 0, 0, 0.8, 3.8, 12.6)" points="23.9,33.2  23,23.3    15.4,29.8" />
      </g>
    </symbol>

    <symbol id="COBOL" viewBox="0 0 1000 1000">
      <title>COBOL</title>
      <path fill="#fff" d="M966.5,316.3c0,0,14.6-13.6,18.4-39.2c4.8-31.6,0.6-70.1,0.6-70.1s-9.8,29.2-25.2,47.6c-11.8,14.2-31.8,23.6-31.8,23.6s-61.2,5.9-93.6-7.6c-23-9.6-20.5-39.9-20.5-39.9s13.7-17.4,31.9-36.2c13.5-13.9,30.1-27.2,41.5-42.2c16.4-21.5,18.5-41.9,18.5-41.9s-53.3,26.2-95.8,55.9C782.4,186,759,213.4,759,213.4l-7.9-12.7c0,0,23.7-25.2,30.2-54.5c7-31.5-3.2-67.4-3.2-67.4s-7.9,31.8-24.2,55.6c-14.4,21.1-37.5,34.7-37.5,34.7s-11.7,1.9-18.3-5.6c-10.6-12-18.2-35.6-18.2-35.6s-12.2,8-23.3,3.7c-13.3-5.2-25.8-22.7-25.8-22.7s-15.5,11.5-34.9,16.1c-16.8,4-38,1.3-38,1.3s-7.1,10.5-24,15.6c-17.1,5.2-44.1,5-44.1,5s7.8,19.5-3.1,33.8c-11.3,14.9-41.2,24.8-41.2,24.8l26.9,26.9c0,0-13.8,6.1-35.4,25c-16.5,14.4-33,36.4-48.3,51.3c-14.7,14.3-28.7,21.9-28.7,21.9s-81.3,7.5-132,82.3c-40.2,59.3-18.4,153.6-18.4,153.6s-57,58.7-120.3,5.3c-72.1-60.9-28.6-154.1-28.6-154.1s-94.7,60-25,186.7C106,732.2,230.1,671,230.1,671l-6.3,30.1L211.1,717l6.3,14.3c0,0,3.7,18.7,3.3,33.3c-0.3,9.5-4.9,17.3-4.9,17.3s-7.5,16.6-5.2,25.9c2.4,9.7,14.7,12.1,14.7,12.1s5.2,13,13.5,15.4c10.5,3.1,24.5-4.3,24.5-4.3s16,8.2,28,5.5c12.5-2.8,21.1-16.6,21.1-16.6s14.1,1.8,21.5-2.7c6.9-4.2,7-14.8,7-14.8l-33.3-30.1l-1.6-45.9c0,0,29.6-32.9,42.9-65.7c10-24.6,4.6-51.4,4.6-51.4s12.8-9.5,27.9-3.6c12.7,5,24.3,23.5,36.7,31.7c14.5,9.6,28.9,8.4,28.9,8.4s-2.3,18.6-1.5,33.5c0.7,12.5,4.6,21.9,4.6,21.9s10.8,7.7,16.6,19.6c6.7,13.8,9.2,33,21.4,46.3c8.6,9.4,19.5,8.8,28.2,13.8c13.9,7.9,24,18.5,24,18.5s11.9,17.3,11.9,37.7c0,14.1-12.5,27.6-15.4,40c-3.1,13.4,3.5,25.2,3.5,25.2s13.3-0.2,21.4,3.4c12.3,5.5,21.4,15.6,21.4,15.6s15.2-11,31.7-12.3c15.1-1.1,31.6,7.5,31.6,7.5s10.7-0.7,16.4-6.6c5-5.1,4.7-15.2,10.4-18.9c10.5-6.9,19.1-4.6,19.1-4.6s11.4-12.6,5.5-24.2c-4.2-8.3-16.5-11.7-24.1-19c-9.8-9.4-14.7-21.7-14.7-21.7l17.4-20.6c0,0,14.1,7.1,25.8,8.7c11.2,1.6,20.1-2.3,20.1-2.3l1.6-11.1c0,0-23.5-40.8-27-98.3c-2.6-42.1,14.8-89.6,17.2-129.9c2.8-46-9.3-82.2-9.3-82.2s6-13,25.1-16.1c28.5-4.5,122.3,24,163.5,20c52.7-5,50.6-42,50.6-42s-15.6,8.8-32.9-0.7c-21.2-11.7-44.7-42.1-44.7-42.1s21.8-12.5,57.4-0.8c26.3,8.7,39.2,43.6,39.2,43.6s26-21.7,26.7-50.6C990.8,362.4,966.5,316.3,966.5,316.3z M590.5,694l-6.9-57.8l22.4-6.9l4.3,82L590.5,694z"/>
    </symbol>

    <symbol id="CSS" viewBox="0 0 128 128">
      <title>CSS</title>
      <path fill="#1572B6" d="M18.814 114.123L8.76 1.352h110.48l-10.064 112.754-45.243 12.543-45.119-12.526z" />
      <path fill="#33A9DC" d="M64.001 117.062l36.559-10.136 8.601-96.354h-45.16v106.49z" />
      <path fill="#fff" d="M64.001 51.429h18.302l1.264-14.163H64.001V23.435h34.682l-.332 3.711-3.4 38.114h-30.95V51.429z" />
      <path fill="#EBEBEB" d="M64.083 87.349l-.061.018-15.403-4.159-.985-11.031H33.752l1.937 21.717 28.331 7.863.063-.018v-14.39z" />
      <path fill="#fff" d="M81.127 64.675l-1.666 18.522-15.426 4.164v14.39l28.354-7.858.208-2.337 2.406-26.881H81.127z" />
      <path fill="#EBEBEB" d="M64.048 23.435v13.831H30.64l-.277-3.108-.63-7.012-.331-3.711h34.646zm-.047 27.996v13.831H48.792l-.277-3.108-.631-7.012-.33-3.711h16.447z" />
    </symbol>

    <symbol id="HTML" viewBox="0 0 128 128">
      <title>HTML</title>
      <path fill="#E44D26" d="M19.037 113.876L9.032 1.661h109.936l-10.016 112.198-45.019 12.48z" />
      <path fill="#F16529" d="M64 116.8l36.378-10.086 8.559-95.878H64z" />
      <path fill="#EBEBEB" d="M64 52.455H45.788L44.53 38.361H64V24.599H29.489l.33 3.692 3.382 37.927H64zm0 35.743l-.061.017-15.327-4.14-.979-10.975H33.816l1.928 21.609 28.193 7.826.063-.017z" />
      <path fill="#fff" d="M63.952 52.455v13.763h16.947l-1.597 17.849-15.35 4.143v14.319l28.215-7.82.207-2.325 3.234-36.233.335-3.696h-3.708zm0-27.856v13.762h33.244l.276-3.092.628-6.978.329-3.692z" />
    </symbol>

    <symbol id="Less" viewBox="0 0 128 128">
      <title>Less</title>
      <path fill="#2A4D80" d="M122.301 58.635c-.6-1.299-.89-2.836-.952-4.283-.154-3.561-.023-7.135-.184-10.696-.144-3.189-1.282-6.063-4.344-7.707-2.696-1.447-5.821-1.591-8.821-1.625v5.691c1 .034.754.065.998.078 4.029.198 5.379 1.476 5.43 5.473.038 2.972.012 5.946.06 8.917.059 3.605.597 7.046 3.894 9.322.056.039.051.182.083.348-1.678 1.192-3.006 2.727-3.392 4.822a34.53 34.53 0 00-.54 5.153c-.096 3.118.003 6.243-.086 9.361-.07 2.442-1.227 3.588-3.604 4.132-.895.206-1.843.279-2.843.406v5.677c2-.12 3.017-.199 4.387-.347 5.156-.558 8.059-3.241 8.654-8.243.186-1.568.165-3.166.2-4.75.066-2.969.032-5.952.298-8.903.271-3.011 2.461-4.675 5.461-4.509v-5.951c-2 .358-3.843-.507-4.699-2.366zM28.314 70.768C28.313 59.219 28 47.67 28 36.122v-1.817c-3 0-6.226-.029-9.391.014-1.285.017-2.418.127-3.692.301-4.877.664-7.228 2.953-8.092 7.812-.25 1.402-.2 2.859-.221 4.293-.039 2.726.039 5.453-.005 8.178-.055 3.432-1.672 6.092-5.172 6.294-.124.007.573.15-.427.236v5.305c4 .628 5.273 2.243 5.539 5.959.042.592.053 1.189.059 1.784.034 3.32-.004 6.645.146 9.959.141 3.093.828 5.857 3.751 7.48C13.225 93.436 17 93.559 19 93.638v-5.664c0-.048-.21-.092-.405-.104-4.339-.265-5.317-1.443-5.343-5.785-.017-2.875.106-5.75.06-8.625-.058-3.612-.586-7.038-3.856-9.324-.05-.035-.001-.183-.017-.383 2.199-1.39 3.368-3.516 3.686-6.094.176-1.422.235-2.864.26-4.299.05-2.973-.003-5.949.078-8.92.057-2.088 1.39-3.61 3.091-3.952 1.612-.325 2.446-.315 5.446-.466v2.056c0 10.31-.367 20.619-.313 30.929.019 3.531.41 7.012 4.195 8.537 2.058.829 4.263 1.084 6.627 1.642.395-2.312.524-4.23.847-6.128-4.357-1.25-5.042-1.898-5.042-6.29zm26.674-19.893c-7.34-3.51-16.248-.441-19.666 6.921-2.574 5.544-2.482 11.25-.216 16.872 1.229 3.048 3.45 5.33 6.473 6.672 5.904 2.621 11.879 1.984 17.832.144.321-.1.731-.718.692-1.046-.203-1.661-.54-3.306-.841-5.021-1.417.357-2.601.722-3.811.949-3.197.601-6.401.6-9.512-.637-3.072-1.22-5.135-4.73-4.622-7.73h20.872c.255-3 .154-7.125-1.123-10.536-1.14-3.049-3.108-5.167-6.078-6.588zM54.944 63H41.228c.007-4 3.264-7.59 7.537-7.508 3.753.072 6.349 3.508 6.179 7.508zm56.108 12.279c.492-5.054-1.034-7.898-5.534-10.094-1.596-.779-3.29-1.356-4.916-2.078-1.217-.54-2.442-1.087-3.58-1.771-1.108-.665-1.572-1.769-1.408-3.062.161-1.277.982-2.119 2.168-2.359 1.437-.292 2.943-.542 4.388-.424 2.042.167 4.056.69 6.163 1.075l1.332-5.818c-2.851-.434-5.509-.995-8.195-1.207-2.987-.235-5.896.261-8.63 1.67-5.777 2.977-5.883 12.116-.574 15.116 1.586.896 3.283 1.596 4.933 2.38 1.737.827 3.537 1.546 5.199 2.504 1.262.727 1.713 1.996 1.375 3.475-.313 1.375-1.354 1.988-2.577 2.105-1.86.177-3.768.347-5.609.128-2.217-.264-4.387-.937-6.658-1.451l-1.158 5.79c5.333 2.002 10.61 2.33 15.938 1.149 4.459-.988 6.999-3.596 7.343-7.128zm-28.415-9.452c-1.959-1.039-4.066-1.797-6.088-2.723-1.255-.575-2.584-1.074-3.69-1.871-2.127-1.533-1.731-4.472.746-5.258 1.421-.452 3.028-.592 4.521-.48 2.034.153 4.041.679 6.162 1.063l1.258-5.546c-1.077-.293-2.052-.612-3.051-.822-3.971-.836-7.963-1.16-11.874.215-3.36 1.182-5.691 3.392-6.152 7.11-.516 4.152.861 7.43 4.696 9.402 1.535.79 3.18 1.363 4.747 2.095 1.564.73 3.161 1.427 4.614 2.343 1.111.7 1.549 1.885 1.236 3.255-.311 1.358-1.301 2.042-2.533 2.169-1.86.191-3.769.368-5.611.153-2.226-.26-4.403-.935-6.714-1.455-.341 1.613-.741 3.238-.99 4.885-.054.358.345 1.046.681 1.163 5.384 1.866 10.864 2.134 16.34.521 3.27-.962 5.557-3.051 6.018-6.623.523-4.055-.444-7.544-4.316-9.596z" />
    </symbol>

    <symbol id="JS" viewBox="0 0 128 128">
      <title>JavaScript</title>
      <path fill="#F0DB4F" d="M1.408 1.408h125.184v125.185H1.408z" />
      <path fill="#323330" d="M116.347 96.736c-.917-5.711-4.641-10.508-15.672-14.981-3.832-1.761-8.104-3.022-9.377-5.926-.452-1.69-.512-2.642-.226-3.665.821-3.32 4.784-4.355 7.925-3.403 2.023.678 3.938 2.237 5.093 4.724 5.402-3.498 5.391-3.475 9.163-5.879-1.381-2.141-2.118-3.129-3.022-4.045-3.249-3.629-7.676-5.498-14.756-5.355l-3.688.477c-3.534.893-6.902 2.748-8.877 5.235-5.926 6.724-4.236 18.492 2.975 23.335 7.104 5.332 17.54 6.545 18.873 11.531 1.297 6.104-4.486 8.08-10.234 7.378-4.236-.881-6.592-3.034-9.139-6.949-4.688 2.713-4.688 2.713-9.508 5.485 1.143 2.499 2.344 3.63 4.26 5.795 9.068 9.198 31.76 8.746 35.83-5.176.165-.478 1.261-3.666.38-8.581zM69.462 58.943H57.753l-.048 30.272c0 6.438.333 12.34-.714 14.149-1.713 3.558-6.152 3.117-8.175 2.427-2.059-1.012-3.106-2.451-4.319-4.485-.333-.584-.583-1.036-.667-1.071l-9.52 5.83c1.583 3.249 3.915 6.069 6.902 7.901 4.462 2.678 10.459 3.499 16.731 2.059 4.082-1.189 7.604-3.652 9.448-7.401 2.666-4.915 2.094-10.864 2.07-17.444.06-10.735.001-21.468.001-32.237z" />
    </symbol>

    <symbol id="PHP" viewBox="0 0 711 383">
      <title>PHP</title>
      <g transform="matrix(1.25, 0, 0, -1.25, -4.4, 394)">
        <path d="M 11.52,162 C 11.52,81.677 135.307,16.561 288,16.561 l 0,0 c 152.693,0 276.481,65.116 276.481,145.439 l 0,0 c 0,80.322 -123.788,145.439 -276.481,145.439 l 0,0 C 135.307,307.439 11.52,242.322 11.52,162" id="path3462" style="fill:url(#radialGradient3452);stroke:none"/>
        <path transform="translate(288.0,  27)" d="M 0,0 C 146.729,0 265.68,60.281 265.68,134.641 265.68,209 146.729,269.282 0,269.282 -146.729,269.282 -265.68,209 -265.68,134.641 -265.68,60.281 -146.729,0 0,0" id="path3474" style="fill:#777bb3;fill-opacity:1;fill-rule:nonzero;stroke:none"/>
        <path transform="translate(161.7, 145)" d="m 0,0 c 12.065,0 21.072,2.225 26.771,6.611 5.638,4.341 9.532,11.862 11.573,22.353 1.903,9.806 1.178,16.653 -2.154,20.348 C 32.783,53.086 25.417,55 14.297,55 L -4.984,55 -15.673,0 0,0 Z m -63.063,-67.75 c -0.895,0 -1.745,0.4 -2.314,1.092 -0.57,0.691 -0.801,1.601 -0.63,2.48 L -37.679,81.573 C -37.405,82.982 -36.17,84 -34.734,84 L 26.32,84 C 45.508,84 59.79,78.79 68.767,68.513 77.792,58.182 80.579,43.741 77.05,25.592 75.614,18.198 73.144,11.331 69.709,5.183 66.27,-0.972 61.725,-6.667 56.198,-11.747 49.582,-17.939 42.094,-22.429 33.962,-25.071 25.959,-27.678 15.681,-29 3.414,-29 l -24.722,0 -7.06,-36.322 c -0.274,-1.41 -1.508,-2.428 -2.944,-2.428 l -31.751,0 z" id="path3486" style="fill:#000000;fill-opacity:1;fill-rule:nonzero;stroke:none"/>
        <path transform="translate(159.2, 197)" d="m 0,0 16.808,0 c 13.421,0 18.083,-2.945 19.667,-4.7 2.628,-2.914 3.124,-9.058 1.435,-17.767 C 36.012,-32.217 32.494,-39.13 27.452,-43.012 22.29,-46.986 13.898,-49 2.511,-49 L -9.523,-49 0,0 Z m 28.831,35 -61.055,0 c -2.872,0 -5.341,-2.036 -5.889,-4.855 l -28.328,-145.751 c -0.342,-1.759 0.12,-3.578 1.259,-4.961 1.14,-1.383 2.838,-2.183 4.63,-2.183 l 31.75,0 c 2.873,0 5.342,2.036 5.89,4.855 l 6.588,33.895 22.249,0 c 12.582,0 23.174,1.372 31.479,4.077 8.541,2.775 16.399,7.48 23.354,13.984 5.752,5.292 10.49,11.232 14.08,17.657 3.591,6.427 6.171,13.594 7.668,21.302 3.715,19.104 0.697,34.402 -8.969,45.466 C 63.965,29.444 48.923,35 28.831,35 m -45.633,-90 19.313,0 c 12.801,0 22.336,2.411 28.601,7.234 6.266,4.824 10.492,12.875 12.688,24.157 2.101,10.832 1.144,18.476 -2.871,22.929 C 36.909,3.773 28.87,6 16.808,6 L -4.946,6 -16.802,-55 M 28.831,29 C 47.198,29 60.597,24.18 69.019,14.539 77.44,4.898 79.976,-8.559 76.616,-25.836 75.233,-32.953 72.894,-39.46 69.601,-45.355 66.304,-51.254 61.999,-56.648 56.679,-61.539 50.339,-67.472 43.296,-71.7 35.546,-74.218 27.796,-76.743 17.925,-78 5.925,-78 l -27.196,0 -7.531,-38.75 -31.75,0 28.328,145.75 61.055,0" id="path3490" style="fill:#ffffff;fill-opacity:1;fill-rule:nonzero;stroke:none"/>
        <path transform="translate(311.6, 116)" d="m 0,0 c -0.896,0 -1.745,0.4 -2.314,1.092 -0.571,0.691 -0.802,1.6 -0.631,2.48 L 9.586,68.061 C 10.778,74.194 10.484,78.596 8.759,80.456 7.703,81.593 4.531,83.5 -4.848,83.5 L -27.55,83.5 -43.305,2.428 C -43.579,1.018 -44.814,0 -46.25,0 l -31.5,0 c -0.896,0 -1.745,0.4 -2.315,1.092 -0.57,0.691 -0.801,1.601 -0.63,2.48 l 28.328,145.751 c 0.274,1.409 1.509,2.427 2.945,2.427 l 31.5,0 c 0.896,0 1.745,-0.4 2.315,-1.091 0.57,-0.692 0.801,-1.601 0.63,-2.481 L -21.813,113 2.609,113 c 18.605,0 31.221,-3.28 38.569,-10.028 7.49,-6.884 9.827,-17.891 6.947,-32.719 L 34.945,2.428 C 34.671,1.018 33.437,0 32,0 L 0,0 Z" id="path3494" style="fill:#000000;fill-opacity:1;fill-rule:nonzero;stroke:none"/>
        <path transform="translate(293.7, 271)" d="m 0,0 -31.5,0 c -2.873,0 -5.342,-2.036 -5.89,-4.855 l -28.328,-145.751 c -0.342,-1.759 0.12,-3.578 1.26,-4.961 1.14,-1.383 2.838,-2.183 4.63,-2.183 l 31.5,0 c 2.872,0 5.342,2.036 5.89,4.855 l 15.283,78.645 20.229,0 c 9.363,0 11.328,-2 11.407,-2.086 0.568,-0.611 1.315,-3.441 0.082,-9.781 l -12.531,-64.489 c -0.342,-1.759 0.12,-3.578 1.26,-4.961 1.14,-1.383 2.838,-2.183 4.63,-2.183 l 32,0 c 2.872,0 5.342,2.036 5.89,4.855 l 13.179,67.825 c 3.093,15.921 0.447,27.864 -7.861,35.5 -7.928,7.281 -21.208,10.82 -40.599,10.82 l -20.784,0 6.143,31.605 C 6.231,-5.386 5.77,-3.566 4.63,-2.184 3.49,-0.801 1.792,0 0,0 m 0,-6 -7.531,-38.75 28.062,0 c 17.657,0 29.836,-3.082 36.539,-9.238 6.703,-6.16 8.711,-16.141 6.032,-29.938 l -13.18,-67.824 -32,0 12.531,64.488 c 1.426,7.336 0.902,12.34 -1.574,15.008 -2.477,2.668 -7.746,4.004 -15.805,4.004 l -25.176,0 -16.226,-83.5 -31.5,0 L -31.5,-6 0,-6" id="path3498" style="fill:#ffffff;fill-opacity:1;fill-rule:nonzero;stroke:none"/>
        <path transform="translate(409.5, 145)" d="m 0,0 c 12.065,0 21.072,2.225 26.771,6.611 5.638,4.34 9.532,11.861 11.574,22.353 1.903,9.806 1.178,16.653 -2.155,20.348 C 32.783,53.086 25.417,55 14.297,55 L -4.984,55 -15.673,0 0,0 Z m -63.062,-67.75 c -0.895,0 -1.745,0.4 -2.314,1.092 -0.57,0.691 -0.802,1.601 -0.631,2.48 L -37.679,81.573 C -37.404,82.982 -36.17,84 -34.733,84 L 26.32,84 C 45.509,84 59.79,78.79 68.768,68.513 77.793,58.183 80.579,43.742 77.051,25.592 75.613,18.198 73.144,11.331 69.709,5.183 66.27,-0.972 61.725,-6.667 56.198,-11.747 49.582,-17.939 42.094,-22.429 33.962,-25.071 25.959,-27.678 15.681,-29 3.414,-29 l -24.723,0 -7.057,-36.322 c -0.275,-1.41 -1.509,-2.428 -2.946,-2.428 l -31.75,0 z" id="path3502" style="fill:#000000;fill-opacity:1;fill-rule:nonzero;stroke:none"/>
        <path transform="translate(407.0, 197)" d="M 0,0 16.808,0 C 30.229,0 34.891,-2.945 36.475,-4.7 39.104,-7.614 39.6,-13.758 37.91,-22.466 36.012,-32.217 32.493,-39.13 27.452,-43.012 22.29,-46.986 13.898,-49 2.511,-49 L -9.522,-49 0,0 Z m 28.831,35 -61.054,0 c -2.872,0 -5.341,-2.036 -5.889,-4.855 L -66.44,-115.606 c -0.342,-1.759 0.12,-3.578 1.259,-4.961 1.14,-1.383 2.838,-2.183 4.63,-2.183 l 31.75,0 c 2.872,0 5.342,2.036 5.89,4.855 l 6.587,33.895 22.249,0 c 12.582,0 23.174,1.372 31.479,4.077 8.541,2.775 16.401,7.481 23.356,13.986 5.752,5.291 10.488,11.23 14.078,17.655 3.591,6.427 6.171,13.594 7.668,21.302 3.715,19.105 0.697,34.403 -8.969,45.467 C 63.965,29.444 48.924,35 28.831,35 m -45.632,-90 19.312,0 c 12.801,0 22.336,2.411 28.601,7.234 6.267,4.824 10.492,12.875 12.688,24.157 2.102,10.832 1.145,18.476 -2.871,22.929 C 36.909,3.773 28.87,6 16.808,6 L -4.946,6 -16.801,-55 M 28.831,29 C 47.198,29 60.597,24.18 69.019,14.539 77.441,4.898 79.976,-8.559 76.616,-25.836 75.233,-32.953 72.894,-39.46 69.601,-45.355 66.304,-51.254 61.999,-56.648 56.679,-61.539 50.339,-67.472 43.296,-71.7 35.546,-74.218 27.796,-76.743 17.925,-78 5.925,-78 l -27.196,0 -7.53,-38.75 -31.75,0 28.328,145.75 61.054,0" id="path3506" style="fill:#ffffff;fill-opacity:1;fill-rule:nonzero;stroke:none"/>
      </g>
    </symbol>

    <symbol id="Python" viewBox="30 0 85 85">
      <title>Python</title>
      <path fill="#386f9f" d="M51.834 23.017c3.756 0 7.512.058 11.263-.04.995-.026 2.78.797 2.7-1.271-.061-1.683-1.622-1.074-2.568-1.089-4.237-.067-8.488-.228-12.708.037-3.003.187-3.888-.953-3.511-3.707.13-.95.005-1.934.025-2.902.132-6.446 1.69-8.64 7.942-10.23 6.888-1.75 13.937-1.692 20.806-.184 6.175 1.356 8.74 6.16 8.428 10.604-.38 5.423-.086 10.893-.091 16.343-.009 6.853-3.55 10.49-10.459 10.585-5.69.078-11.387.14-17.074-.018-6.778-.19-11.75 5.44-11.784 11.82 0 .484.083.984-.013 1.451-.488 2.343 1.462 6.13-1.022 6.826-3.78 1.062-8.206 1.062-11.54-2.311-1.13-1.14-2.082-2.417-2.584-3.893-2.679-7.865-3.102-15.83-.58-23.818 1.572-4.986 5.848-8.087 11.145-8.176 3.874-.065 7.749-.013 11.623-.013l.002-.014zm6.902-11.12c-.162-1.903-1.185-3.292-3.296-3.35-2.309-.06-3.502 1.336-3.505 3.608-.002 2.106 1.145 3.455 3.241 3.516 2.303.067 3.418-1.36 3.56-3.774z" />
      <path fill="#ffcf46" d="M80.824 61.572c-4.24 0-8.482-.037-12.722.03-.955.012-2.557-.592-2.607 1.041-.056 1.852 1.663 1.37 2.755 1.381 4.24.053 8.484.098 12.723-.02 2.178-.06 3.067.357 3.23 2.925.737 11.625-4.308 12.63-13.613 14.745-5.338 1.213-11.061.57-16.325-1.788-4.353-1.947-7.024-4.753-6.687-10.007.334-5.186.39-10.439-.009-15.62-.48-6.253 3.41-10.852 10.975-10.854 5.09-.001 10.214-.389 15.26.075 7.215.662 12.872-5.592 13.12-12.864.01-.241-.052-.5.01-.724.636-2.235-1.626-5.557 1.4-6.686 4.573-1.705 9.73.087 12.066 3.557 2.945 4.369 3.343 9.51 3.819 14.53.515 5.411-1.003 10.505-3.276 15.386-1.544 3.31-4.14 4.91-7.757 4.915-4.12.003-8.239 0-12.36 0-.002-.008-.002-.015-.002-.022zm-1.104 10.8c-.453-2.066-1.385-3.476-3.785-3.535-2.496-.06-3.14 1.807-3.127 3.474.014 1.772.508 3.952 3.21 3.748 2.246-.172 3.341-1.563 3.702-3.687z" />
    </symbol>

    <symbol id="Shell" viewBox="0 0 128 128">
      <title>Shell (sh/Bash)</title>
      <path fill="#000" d="M4.24 4.24h119.53v119.53H4.24z" />
      <path fill="#bbb" d="M109.01 28.64L71.28 6.24c-2.25-1.33-4.77-2-7.28-2s-5.03.67-7.28 2.01l-37.74 22.4c-4.5 2.67-7.28 7.61-7.28 12.96v44.8c0 5.35 2.77 10.29 7.28 12.96l37.73 22.4c2.25 1.34 4.76 2 7.28 2 2.51 0 5.03-.67 7.28-2l37.74-22.4c4.5-2.67 7.28-7.62 7.28-12.96V41.6c0-5.34-2.77-10.29-7.28-12.96zM79.79 98.59l.06 3.22c0 .39-.25.83-.55.99l-1.91 1.1c-.3.15-.56-.03-.56-.42l-.03-3.17c-1.63.68-3.29.84-4.34.42-.2-.08-.29-.37-.21-.71l.69-2.91c.06-.23.18-.46.34-.6.06-.06.12-.1.18-.13.11-.06.22-.07.31-.03 1.14.38 2.59.2 3.99-.5 1.78-.9 2.97-2.72 2.95-4.52-.02-1.64-.9-2.31-3.05-2.33-2.74.01-5.3-.53-5.34-4.57-.03-3.32 1.69-6.78 4.43-8.96l-.03-3.25c0-.4.24-.84.55-1l1.85-1.18c.3-.15.56.04.56.43l.03 3.25c1.36-.54 2.54-.69 3.61-.44.23.06.34.38.24.75l-.72 2.88c-.06.22-.18.44-.33.58a.77.77 0 01-.19.14c-.1.05-.19.06-.28.05-.49-.11-1.65-.36-3.48.56-1.92.97-2.59 2.64-2.58 3.88.02 1.48.77 1.93 3.39 1.97 3.49.06 4.99 1.58 5.03 5.09.05 3.44-1.79 7.15-4.61 9.41zm26.34-60.5l-35.7 22.05c-4.45 2.6-7.73 5.52-7.74 10.89v43.99c0 3.21 1.3 5.29 3.29 5.9-.65.11-1.32.19-1.98.19-2.09 0-4.15-.57-5.96-1.64l-37.73-22.4c-3.69-2.19-5.98-6.28-5.98-10.67V41.6c0-4.39 2.29-8.48 5.98-10.67l37.74-22.4c1.81-1.07 3.87-1.64 5.96-1.64s4.15.57 5.96 1.64l37.74 22.4c3.11 1.85 5.21 5.04 5.8 8.63-1.27-2.67-4.09-3.39-7.38-1.47z" />
      <path fill="#4FA847" d="M99.12 90.73l-9.4 5.62c-.25.15-.43.31-.43.61v2.46c0 .3.2.43.45.28l9.54-5.8c.25-.15.29-.42.29-.72v-2.17c0-.3-.2-.42-.45-.28z" />
    </symbol>

    <symbol id="SQLite" viewBox="0 0 6 6">
      <title>SQLite</title>
      <path d="M4.96.29H.847c-.276 0-.5.226-.5.5v4.536c0 .276.226.5.5.5h2.71c-.03-1.348.43-3.964 1.404-5.54z" fill="#0f80cc"/>
      <path d="M5.92.142c-.282-.25-.623-.15-.96.148l-.15.146c-.576.61-1.1 1.742-1.276 2.607a2.38 2.38 0 0 1 .148.426l.022.1.022.102s-.005-.02-.026-.08l-.014-.04a.461.461 0 0 0-.009-.022c-.038-.087-.14-.272-.187-.352a8.789 8.789 0 0 0-.103.321c.132.242.212.656.212.656s-.007-.027-.04-.12c-.03-.083-.176-.34-.21-.4-.06.22-.083.368-.062.404.04.07.08.2.115.324a7.52 7.52 0 0 1 .132.666l.005.062a6.11 6.11 0 0 0 .015.75c.026.313.075.582.137.726l.042-.023c-.09-.284-.128-.655-.112-1.084.025-.655.175-1.445.454-2.268C4.548 1.938 5.2.94 5.798.464c-.545.492-1.282 2.084-1.502 2.673-.247.66-.422 1.28-.528 1.873.182-.556.77-.796.77-.796s.29-.356.626-.865l-.645.172-.208.092s.53-.323.987-.47c.627-.987 1.31-2.39.622-3.002" fill="#003b57"/>
    </symbol>

    <symbol id="Vim" viewBox="0 0 256 257" preserveAspectRatio="xMinYMin meet">
      <title>Vim</title>
      <path d="M128.286 1.952L1.945 127.885 128.286 254.4l125.761-126.515L128.286 1.952" fill="#019833"/><path d="M128.264 13.516V2.885L2.774 127.908h10.753L128.264 13.516" fill="#66FE98"/><path d="M128.264 13.516V2.885l125.88 125.023h-11.636L128.264 13.516" fill="#45FE02"/><path d="M128.264 242.836v11.769L2.774 127.908h10.753l114.737 114.928" fill="#017D17"/><path d="M128.264 242.836v11.769l125.88-126.697h-11.636L128.264 242.836" fill="#005D04"/><path d="M65.226 230.591H40.9l-9.5-9.258V44.55h-7.54l-6.455-6.464V18.325l6.687-7.253h85.075l7.649 7.658v18.756l-6.356 7.747h-6.428v59.758l60.487-59.758h-3.377l-7.035-7.587V17.758l6.912-6.345h85.872l6.796 6.805v18.81L65.226 230.591"/><path d="M128.264 256.342L0 127.908 128.264 0 256 127.908 128.264 256.342zM3.929 127.908L128.264 252.41l123.805-124.502L128.264 3.935 3.929 127.908z"/><path d="M108.075 22.742l3.779-2.441-3.861-4.008H26.156l-4.158 4.164v15.75l4.61 4.616 2.199-4.616-2.892-2.897V22.207l2.169-1.931 77.264.095 2.727 2.371" fill="#FEFEFE"/><path d="M41.458 35.833v184.334l2.592 2.468-2.077 3.925-5.451-5.369V40.612l4.936-4.779" fill="#FEFEFE"/><path d="M28.236 35.833l-1.628 4.99h9.886l5.719-4.99H28.236" fill="gray"/><path d="M166.531 35.897l-3.457-2.442v-9.896l3.616-3.621h75.449l2.893 3.862 4.117-3.249-4.238-3.872h-81.114l-4.038 4.043v15.871l4.252 3.848m-65.615 76.31l-7.879 19.144 88.948-89.309-.435-10.804-80.634 80.969" fill="#FEFEFE"/><path d="M107.897 22.671l3.957-2.37v15.532l-4.517 4.523h-8.778l-.163 76.395-7.849 19.1V35.833h14.659l2.727-2.219-.036-10.943M244.764 22.722l4.385-2.171v14.183L62.408 226.56H41.973l1.994-3.77 15.695.001L244.791 31.379l-.027-8.657M179.03 35.782l-4.548 4.569-10.471.09 2.557-4.59 12.462-.069" fill="gray"/><path d="M165.973 19.79l-2.89 2.893v10.624l2.531 2.534h13.372v10.265l-88.46 89.783V35.968h14.701l3.016-3.02V22.197l-2.784-2.154H28.093l-2.531 2.535V33.56l2.573 2.577h13.457v184.002l2.531 2.534h15.292L244.794 31.131v-8.448l-2.89-2.893h-75.931" fill="#CCC"/><path d="M59.519 222.918H44.022l-2.674-2.678V36.381H28.034l-2.716-2.72V22.476l2.674-2.677h77.551l2.945 2.278v10.972l-3.159 3.163H90.77v99.081l87.972-89.288v-9.919h-13.229l-2.674-2.678V22.582l3.032-3.037h76.134l3.033 3.037v8.648l-.068.071L59.519 222.918zm-15.294-.489h15.087L244.55 31.033v-8.249l-2.747-2.75h-75.729l-2.747 2.75v10.422l2.388 2.391h13.516v10.609l-.07.071-88.879 90.208V35.724h14.844l2.873-2.878V22.317l-2.623-2.03H28.194l-2.388 2.392v10.78l2.431 2.434h13.599v184.144l2.389 2.392z" fill="gray"/><path d="M134.566 143.819a.834.834 0 0 0-.38.19l-3.585 3.083a.84.84 0 0 0-.232.359l-3.586 10.054a.835.835 0 0 0 .19.866l2.742 2.745a.835.835 0 0 0 .591.233h11.073a.83.83 0 0 0 .59-.233l2.89-2.914c.1-.1.172-.224.211-.359l3.08-10.582a.835.835 0 0 0-.211-.823l-2.384-2.387a.827.827 0 0 0-.59-.232h-10.23a.796.796 0 0 0-.169 0zm-20.29 28.343a.833.833 0 0 0-.633.613l-1.371 5.449a.833.833 0 0 0 .801 1.035h6.518l-16.157 46.19a.833.833 0 0 0 .781 1.099h23.517a.834.834 0 0 0 .802-.571l1.54-4.963a.834.834 0 0 0-.802-1.077h-5.315l15.988-46.676a.833.833 0 0 0-.781-1.099h-24.72a.943.943 0 0 0-.168 0zm74.835.169a.835.835 0 0 0-.465.275l-4.893 5.533h-7.783l-5.189-5.385a.828.828 0 0 0-.59-.254h-18.582a.832.832 0 0 0-.781.549l-1.708 5.112a.834.834 0 0 0 .78 1.098h4.978l-15.482 45.683a.835.835 0 0 0 .781 1.099h19.784a.833.833 0 0 0 .781-.549l1.518-4.457a.833.833 0 0 0-.78-1.098h-3.459l9.871-31.111h17.865l-11.263 36.138a.832.832 0 0 0 .801 1.077h19.088a.834.834 0 0 0 .76-.507l1.708-4.098a.832.832 0 0 0-.759-1.14h-3.459l10.04-31.639h17l-11.432 36.307a.833.833 0 0 0 .802 1.077h20.965a.835.835 0 0 0 .781-.528l1.708-4.457a.833.833 0 0 0-.78-1.119h-4.156l12.635-41.079a.836.836 0 0 0-.127-.761l-3.923-5.28a.832.832 0 0 0-.675-.317h-14.996a.829.829 0 0 0-.612.254l-4.725 5.195h-8.268l-4.893-5.364a.83.83 0 0 0-.612-.254h-12.086a.943.943 0 0 0-.168 0z" fill="#CCC"/><path d="M128.359 162.524c.523.504 1.207.78 1.901.78l.046-.001h11.039c.742.023 1.444-.263 2.013-.81l2.883-2.909c.334-.334.579-.751.706-1.195l3.079-10.58a2.785 2.785 0 0 0-.705-2.752l-2.409-2.413a2.713 2.713 0 0 0-1.947-.78h-10.16a2.756 2.756 0 0 0-.436.01l-.205.032c-.47.099-.909.318-1.252.62l-3.586 3.084-.041.037c-.349.318-.612.72-.764 1.167l-3.578 10.031a2.81 2.81 0 0 0 .647 2.907l2.769 2.772zm16.154-16.751l1.575 1.577-2.816 9.676-2.346 2.368-10.168.001-1.897-1.9 3.257-9.13 3.014-2.592h9.381zM241.638 176.931l-3.923-5.28-.035-.045a2.792 2.792 0 0 0-2.225-1.06h-14.948a2.763 2.763 0 0 0-2.049.848l-4.184 4.601h-6.541l-4.312-4.727-.04-.043a2.818 2.818 0 0 0-2.016-.848h-12.016a2.759 2.759 0 0 0-.436.01l-.202.031a2.78 2.78 0 0 0-1.529.893l-4.31 4.874h-6.071l-4.615-4.79a2.81 2.81 0 0 0-1.995-.849h-18.588a2.796 2.796 0 0 0-2.612 1.837l-1.724 5.155a2.792 2.792 0 0 0 2.633 3.675h2.252l-14.61 43.11a2.794 2.794 0 0 0 1.757 3.528c.277.092.565.141.878.144h19.79a2.807 2.807 0 0 0 2.625-1.873l1.522-4.466a2.793 2.793 0 0 0-2.634-3.674h-.789l8.631-27.201H183.1l-10.476 33.611a2.791 2.791 0 0 0 1.847 3.48 3.1 3.1 0 0 0 .824.123H194.4a2.79 2.79 0 0 0 2.547-1.709l1.722-4.13a2.79 2.79 0 0 0-2.577-3.815h-.788l8.799-27.729h12.905l-10.637 33.782a2.792 2.792 0 0 0 2.657 3.601H229.995a2.817 2.817 0 0 0 2.619-1.783l1.719-4.485a2.791 2.791 0 0 0-2.616-3.745h-1.51l11.847-38.518a2.788 2.788 0 0 0-.416-2.533zm-16.723 44.96h5.169l-.842 2.195h-18.676l11.772-37.383h-21.096l-11.28 35.548h4.432l-.765 1.835h-16.815l11.599-37.214h-21.952l-11.111 35.019h4.554l-.748 2.195H141.75l15.854-46.782h-6.137l.952-2.849h17.287l5.433 5.639h9.495l5.135-5.808 11.114-.001 5.124 5.619h9.996l4.955-5.449h13.97l3.236 4.356-13.249 43.08zM130.096 218.105a3.01 3.01 0 0 0-.824-.123h-2.58l15.106-44.099a2.792 2.792 0 0 0-2.634-3.675h-24.65a2.771 2.771 0 0 0-.437.01l-.213.034a2.769 2.769 0 0 0-2.117 2.046l-1.372 5.454a2.794 2.794 0 0 0 2.034 3.38c.212.052.431.08.664.081h3.763l-15.255 43.615a2.792 2.792 0 0 0 2.634 3.674h23.53c1.204 0 2.263-.763 2.656-1.946l1.542-4.971a2.791 2.791 0 0 0-1.847-3.48zm-24.292 6.488l16.541-47.289h-7.826l.802-3.187h22.264l-16.364 47.774h6.534l-.838 2.702h-21.113z"/>
    </symbol>

  </defs>
</svg>
