<?xml version="1.0" encoding="UTF-8" standalone="no"?>
<svg
   xmlns:dc="http://purl.org/dc/elements/1.1/"
   xmlns:cc="http://creativecommons.org/ns#"
   xmlns:rdf="http://www.w3.org/1999/02/22-rdf-syntax-ns#"
   xmlns:svg="http://www.w3.org/2000/svg"
   xmlns="http://www.w3.org/2000/svg"
   xmlns:sodipodi="http://sodipodi.sourceforge.net/DTD/sodipodi-0.dtd"
   xmlns:inkscape="http://www.inkscape.org/namespaces/inkscape"
   id="svg"
   version="1.1"
   width="400"
   height="400"
   viewBox="0, 0, 400,400"
   sodipodi:docname="avatar.svg"
   inkscape:version="1.0.1 (3bc2e813f5, 2020-09-07, custom)">
  <metadata
     id="metadata94">
    <rdf:RDF>
      <cc:Work
         rdf:about="">
        <dc:format>image/svg+xml</dc:format>
        <dc:type
           rdf:resource="http://purl.org/dc/dcmitype/StillImage" />
        <dc:title />
      </cc:Work>
    </rdf:RDF>
  </metadata>
  <defs
     id="defs92" />
  <sodipodi:namedview
     pagecolor="#ffffff"
     bordercolor="#666666"
     borderopacity="1"
     objecttolerance="10"
     gridtolerance="10"
     guidetolerance="10"
     inkscape:pageopacity="0"
     inkscape:pageshadow="2"
     inkscape:window-width="1920"
     inkscape:window-height="1042"
     id="namedview90"
     showgrid="false"
     inkscape:zoom="2.8284271"
     inkscape:cx="194.81311"
     inkscape:cy="290.09673"
     inkscape:window-x="0"
     inkscape:window-y="38"
     inkscape:window-maximized="0"
     inkscape:current-layer="svgg"
     inkscape:document-rotation="0" />
  <g
     id="svgg">
    <rect
       style="opacity:0.75;fill:#ffffff"
       id="rect211"
       width="165.56413"
       height="58.838135"
       x="118.71071"
       y="146.00166" />
    <path
       id="path0"
       d="M 247.53416,4.1905774 C 241.17625,9.7053581 237.4389,8.2940009 227.0469,18.418001 223.7659,21.615001 221.214,23.84 221.391,23.4 c 2.08,-5.151 3.215,-13.004 1.812,-12.533 -0.218,0.073 -3.631,3.244 -7.583,7.047 -9.25,8.9 -11.601,11.039 -11.854,10.786 -0.929,-0.929 2.876,-10.169 6.135,-14.9 l 1.654,-2.4 -1.659,-0.127 c -3.121,-0.239 -9.274,1.882 -18.296,6.308 -10.954,5.372 -18.864,8.627 -24.331,10.009 -28.596,7.233 -42.468,18.163 -43.543,34.31 l -0.247,3.7 -1.639,-0.013 c -0.902,-0.007 -2.54,-0.345 -3.64,-0.752 -11.81,-4.36 -13.68,-4.58 -16.5,-1.939 -1.241,1.163 -1.155,1.292 0.931,1.387 2.202,0.101 4.714,1.471 8.302,4.529 3.366,2.869 3.977,3.764 2.322,3.4 -1.756,-0.386 -6.984,-0.427 -7.578,-0.06 -0.35,0.217 0.719,1.258 3.406,3.316 2.154,1.651 3.97,3.31 4.035,3.689 0.408,2.389 -6.724,4.052 -11.354,2.647 -1.08,-0.327 -2.009,-0.597 -2.064,-0.6 -0.055,-0.002 -0.1,0.761 -0.1,1.696 -10e-4,1.894 -1.295,4.903 -4.002,9.3 -9.83,15.969 -9.91,25.854 -0.527,64.711 1.215,5.03 1.297,4.808 -1.551,4.211 -6.176,-1.296 -8.703,2.63 -9.576,14.878 -1.262,17.717 0.729,23.873 12.072,37.324 2.03,2.407 5.739,8.236 8.252,12.968 3.996,7.524 8.126,9.429 14.59,6.729 0.546,-0.227 0.875,0.428 1.936,3.852 0.703,2.27 1.522,4.847 1.82,5.727 0.298,0.88 1.195,3.76 1.992,6.4 2.688,8.906 3.928,11.225 9.367,17.526 4.236,4.906 15.856,16.608 18.743,18.874 1.768,1.388 3.309,3.541 2.838,3.964 -0.085,0.076 -1.504,0.723 -3.154,1.437 -6.58,2.849 -13.448,7.447 -21.367,14.302 -1.118,0.968 -6.173,5.878 -11.233,10.912 l -9.2,9.152 -6.4,1.851 c -13.096,3.788 -26.492,8.438 -42.2,14.648 -10.679,4.222 -10.896,4.312 -18.6,7.741 -2.64,1.174 -5.696,2.256 -6.791,2.402 -8.264,1.108 -13.863,10.268 -16.618,27.191 -0.565,3.47 -1.159,16.111 -0.889,18.922 l 0.2,2.078 h 362.024 l -0.267,-7.3 c -0.921,-25.232 -7.174,-39.719 -17.677,-40.954 -1.417,-0.166 -3.709,-0.906 -5.767,-1.861 -8.135,-3.776 -20.488,-8.782 -33.661,-13.639 -6.539,-2.412 -21.435,-7.285 -28.154,-9.211 l -6.4,-1.835 -5.632,-5.7 c -17.317,-17.526 -26.077,-24.438 -36.668,-28.932 -3.59,-1.524 -3.751,-1.151 3.097,-7.168 17.552,-15.419 21.474,-20.849 26.008,-36 2.432,-8.13 4.24,-13.923 4.406,-14.124 0.057,-0.068 1.128,0.174 2.38,0.539 5.5,1.599 8.473,-0.543 13.619,-9.815 1.283,-2.31 2.632,-4.65 2.998,-5.2 0.367,-0.55 1.173,-1.77 1.791,-2.711 0.619,-0.94 2.197,-2.92 3.507,-4.4 8.533,-9.631 10.907,-15.855 10.866,-28.489 -0.06,-18.004 -2.691,-23.888 -9.868,-22.067 -2.415,0.613 -2.444,1.547 0.309,-9.933 4.47,-18.648 6.157,-31.992 5.429,-42.948 -0.65,-9.772 -1.558,-20.701 -1.735,-20.879 -0.084,-0.083 -0.826,0.405 -1.65,1.084 -1.826,1.506 -1.776,1.553 -2.102,-1.959 l -0.266,-2.854 -1.282,0.978 c -4.451,3.395 0.313,-6.262 7.256,-14.708 1.395,-1.697 2.537,-3.153 2.537,-3.236 0,-1.186 -15.645,4.576 -16.594,6.113 -0.446,0.721 -1.52,0.476 -1.279,-0.291 0.73,-2.317 2.519,-6.651 3.98,-9.642 0.929,-1.902 1.755,-3.607 1.834,-3.788 0.233,-0.528 -3.11,1.288 -5.941,3.226 -2.252,1.543 -2.618,1.682 -2.732,1.042 C 292.491,56.765 287.806,49.824 281.445,45.232 278.271,42.941 274,38.719 274,37.873 c 0,-0.687 2.414,-4.771 3.913,-6.619 l 1.416,-1.746 -1.365,0.289 c -2.964,0.627 -7.126,2.7 -9.73,4.848 -3.243,2.675 -3.37,2.611 -2.245,-1.124 2.181,-7.244 7.666,-14.666 12.835,-17.368 2.791,-1.459 1.605,-1.738 -3.215,-0.755 -8.466,1.727 -17.989,7.086 -25.498,14.35 -2.913,2.818 -3.186,2.777 -2.122,-0.317 2.024,-5.883 6.42,-12.23 10.964,-15.831 4.403,-3.489 -3.455,-2.073 -9.326,1.681 -0.846,0.541 -1.241,0.656 -1.03,0.298 2.851,-4.826 4.20192,-16.7410477 1.21641,-13.4260239"
       stroke="none"
       fill="#050505"
       fill-rule="evenodd"
       sodipodi:nodetypes="cccccscccccccccccccccccccccccccccsccccccccccccccccccccccsccccccccccccccccccssccsccccscccccscsccscc" />
    <path
       id="rect211-7"
       style="display:inline;opacity:1;fill:#ffffff"
       d="m 140.328,162.555 -4.83203,5.12304 c -5.509,5.84 -4.94651,5.5216 -6.72851,3.8086 -2.383,-2.289 -3.10661,-2.72766 -2.22461,-1.34766 0.4,0.627 1.82406,2.96817 3.16406,5.20117 2.772,4.619 3.0163,4.96125 7.0293,9.90625 l 2.9375,3.61914 3.26172,-0.23632 c 1.795,-0.131 6.86367,-0.41682 11.26367,-0.63282 4.4,-0.216 11.03419,-0.61 14.74219,-0.875 l 6.74023,-0.48242 1.01172,-1.32617 c 2.006,-2.629 1.95303,-4.36584 -0.29297,-9.58984 -2.266,-5.269 -2.25131,-5.43608 0.42969,-5.08008 2.709,0.359 2.45678,-0.15002 -1.07422,-2.16602 -3.414,-1.95 -10.20725,-3.32078 -23.15625,-4.67578 -3.52,-0.369 -7.72094,-0.80098 -9.33594,-0.95898 z m 117.46485,0.12695 c -0.82826,-0.0238 -1.895,0.15391 -3.59375,0.33984 -2.42,0.266 -6.55922,0.6998 -9.19922,0.9668 -13.665,1.383 -20.118,3.05303 -24,6.20703 -0.753,0.612 -0.66127,0.63558 1.55273,0.39258 l 2.35157,-0.25977 -0.27149,1.08985 c -0.151,0.598 -1.07664,2.96381 -2.05664,5.25781 -1.286,3.012 -1.71125,4.46905 -1.53125,5.24805 0.435,1.88 2.13731,4.45739 3.07031,4.65039 1.395,0.288 11.69877,0.99083 20.88477,1.42383 4.62,0.217 9.7798,0.49804 11.4668,0.62304 l 3.0664,0.22852 2.66992,-3.125 c 3.006,-3.519 3.87608,-4.75384 8.08008,-11.46484 3.313,-5.288 3.47521,-5.86696 0.90821,-3.25196 -2.315,2.359 -1.96922,2.51278 -7.19922,-3.19922 -3.70769,-4.04937 -4.37705,-5.07462 -6.19922,-5.12695 z" />
    <path
       id="rect1078"
       style="display:inline;opacity:1;fill:#ffffff;stroke:#ffffff"
       d="m 139.5058,325.59961 c -0.104,0 -2.0018,2.20539 -4.2168,4.90039 -2.215,2.695 -4.67098,5.51934 -5.45898,6.27734 -1.607,1.548 -1.77261,2.5856 -0.84961,5.3086 0.32,0.943 0.93805,3.15406 1.37305,4.91406 0.434,1.76 1.72232,6.71 2.86132,11 4.787,18.03 9.58594,38.98256 9.58594,41.85156 L 257.164,400 l 0.25782,-1.5 c 0.142,-0.825 0.51698,-2.76078 0.83398,-4.30078 0.317,-1.54 0.75937,-3.79 0.98437,-5 0.226,-1.21 0.94943,-4.53844 1.60743,-7.39844 2.165,-9.408 3.61534,-15.09939 9.02734,-35.40039 0.557,-2.09 1.20064,-4.73491 1.43164,-5.87891 l 0.41992,-2.07812 -2.27734,-2.45898 c -1.251,-1.35201 -3.73358,-4.23993 -5.51758,-6.41993 -3.847,-4.701 -2.87436,-4.51693 -7.06836,-1.33593 -26.685,20.243 -86.91941,19.9819 -114.3164,-0.4961 -1.569,-1.172 -2.93802,-2.13281 -3.04102,-2.13281 z"
       sodipodi:nodetypes="sscccscccsccccccsccs" />
  </g>
</svg>
